<svg xmlns="http://www.w3.org/2000/svg" viewBox="0 0 1200 800" font-family="'DM Sans', sans-serif">
  <rect width="1200" height="800" fill="#f8f6f1"/>
  <g stroke="#8a857c" stroke-width="1" opacity="0.3">
    <line x1="0" y1="200" x2="1200" y2="200"/>
    <line x1="0" y1="400" x2="1200" y2="400"/>
    <line x1="0" y1="600" x2="1200" y2="600"/>
  </g>

  <!-- 96-well microplate grid representing enzyme screening -->
  <g>
    <rect x="620" y="300" width="500" height="340" rx="14" fill="#ffffff" stroke="#e2ded6" stroke-width="2"/>
  </g>
  <g id="wells">
  </g>
  <script/>
  <!-- generated well grid (8x10) -->
  <g fill="#0f766e">
    <circle cx="660" cy="340" r="10" opacity="0.85"/><circle cx="700" cy="340" r="10" opacity="0.3"/><circle cx="740" cy="340" r="10" opacity="0.55"/><circle cx="780" cy="340" r="10" opacity="0.85"/><circle cx="820" cy="340" r="10" opacity="0.2"/><circle cx="860" cy="340" r="10" opacity="0.6"/><circle cx="900" cy="340" r="10" opacity="0.4"/><circle cx="940" cy="340" r="10" opacity="0.9"/><circle cx="980" cy="340" r="10" opacity="0.3"/><circle cx="1020" cy="340" r="10" opacity="0.7"/>
    <circle cx="660" cy="378" r="10" opacity="0.3"/><circle cx="700" cy="378" r="10" opacity="0.9"/><circle cx="740" cy="378" r="10" opacity="0.4"/><circle cx="780" cy="378" r="10" opacity="0.6"/><circle cx="820" cy="378" r="10" opacity="0.85"/><circle cx="860" cy="378" r="10" opacity="0.2"/><circle cx="900" cy="378" r="10" opacity="0.7"/><circle cx="940" cy="378" r="10" opacity="0.3"/><circle cx="980" cy="378" r="10" opacity="0.55"/><circle cx="1020" cy="378" r="10" opacity="0.4"/>
    <circle cx="660" cy="416" r="10" opacity="0.6"/><circle cx="700" cy="416" r="10" opacity="0.3"/><circle cx="740" cy="416" r="10" opacity="0.9"/><circle cx="780" cy="416" r="10" opacity="0.2"/><circle cx="820" cy="416" r="10" opacity="0.5"/><circle cx="860" cy="416" r="10" opacity="0.8"/><circle cx="900" cy="416" r="10" opacity="0.35"/><circle cx="940" cy="416" r="10" opacity="0.65"/><circle cx="980" cy="416" r="10" opacity="0.9"/><circle cx="1020" cy="416" r="10" opacity="0.25"/>
    <circle cx="660" cy="454" r="10" opacity="0.4"/><circle cx="700" cy="454" r="10" opacity="0.6"/><circle cx="740" cy="454" r="10" opacity="0.3"/><circle cx="780" cy="454" r="10" opacity="0.85"/><circle cx="820" cy="454" r="10" opacity="0.2"/><circle cx="860" cy="454" r="10" opacity="0.5"/><circle cx="900" cy="454" r="10" opacity="0.9"/><circle cx="940" cy="454" r="10" opacity="0.3"/><circle cx="980" cy="454" r="10" opacity="0.6"/><circle cx="1020" cy="454" r="10" opacity="0.4"/>
    <circle cx="660" cy="492" r="10" opacity="0.85"/><circle cx="700" cy="492" r="10" opacity="0.25"/><circle cx="740" cy="492" r="10" opacity="0.55"/><circle cx="780" cy="492" r="10" opacity="0.4"/><circle cx="820" cy="492" r="10" opacity="0.9"/><circle cx="860" cy="492" r="10" opacity="0.3"/><circle cx="900" cy="492" r="10" opacity="0.6"/><circle cx="940" cy="492" r="10" opacity="0.2"/><circle cx="980" cy="492" r="10" opacity="0.7"/><circle cx="1020" cy="492" r="10" opacity="0.45"/>
    <circle cx="660" cy="530" r="10" opacity="0.3"/><circle cx="700" cy="530" r="10" opacity="0.7"/><circle cx="740" cy="530" r="10" opacity="0.4"/><circle cx="780" cy="530" r="10" opacity="0.6"/><circle cx="820" cy="530" r="10" opacity="0.25"/><circle cx="860" cy="530" r="10" opacity="0.85"/><circle cx="900" cy="530" r="10" opacity="0.5"/><circle cx="940" cy="530" r="10" opacity="0.35"/><circle cx="980" cy="530" r="10" opacity="0.65"/><circle cx="1020" cy="530" r="10" opacity="0.9"/>
    <circle cx="660" cy="568" r="10" opacity="0.55"/><circle cx="700" cy="568" r="10" opacity="0.3"/><circle cx="740" cy="568" r="10" opacity="0.8"/><circle cx="780" cy="568" r="10" opacity="0.2"/><circle cx="820" cy="568" r="10" opacity="0.45"/><circle cx="860" cy="568" r="10" opacity="0.65"/><circle cx="900" cy="568" r="10" opacity="0.3"/><circle cx="940" cy="568" r="10" opacity="0.9"/><circle cx="980" cy="568" r="10" opacity="0.25"/><circle cx="1020" cy="568" r="10" opacity="0.55"/>
    <circle cx="660" cy="606" r="10" opacity="0.4"/><circle cx="700" cy="606" r="10" opacity="0.6"/><circle cx="740" cy="606" r="10" opacity="0.3"/><circle cx="780" cy="606" r="10" opacity="0.9"/><circle cx="820" cy="606" r="10" opacity="0.5"/><circle cx="860" cy="606" r="10" opacity="0.2"/><circle cx="900" cy="606" r="10" opacity="0.7"/><circle cx="940" cy="606" r="10" opacity="0.4"/><circle cx="980" cy="606" r="10" opacity="0.6"/><circle cx="1020" cy="606" r="10" opacity="0.3"/>
  </g>

  <!-- enzyme ribbon / protein fold motif, left side -->
  <g fill="none" stroke="#059669" stroke-width="7" stroke-linecap="round">
    <path d="M 90 620 C 90 500, 250 500, 250 400 C 250 300, 130 300, 130 220"/>
    <path d="M 130 220 C 130 220, 200 220, 220 260" opacity="0.7"/>
  </g>
  <g fill="none" stroke="#2563eb" stroke-width="7" stroke-linecap="round">
    <path d="M 260 640 C 320 600, 320 480, 240 440" />
  </g>
  <circle cx="180" cy="430" r="16" fill="#d97706"/>
  <text x="205" y="437" font-size="14" fill="#5c5850">C–F cleavage site</text>

  <text x="80" y="220" font-size="34" font-weight="700" fill="#2c2a25">Dehalogenase Screening</text>
  <text x="80" y="260" font-size="17" fill="#5c5850">High-throughput enzyme assay against fluoroacetate &amp; haloacid substrates</text>

  <text x="1120" y="770" font-size="12" fill="#8a857c" text-anchor="end" font-family="monospace" letter-spacing="1">PLACEHOLDER — REPLACE WITH LAB PHOTO</text>
</svg>
