<svg xmlns="http://www.w3.org/2000/svg" viewBox="0 0 800 450">
  <defs>
    <linearGradient id="bg2" x1="0" y1="0" x2="1" y2="1">
      <stop offset="0%" stop-color="#0f172a"/>
      <stop offset="100%" stop-color="#111827"/>
    </linearGradient>
  </defs>
  <rect width="800" height="450" fill="url(#bg2)"/>
  <g fill="#10b981">
    <circle cx="120" cy="90" r="4" opacity="0.8"/>
    <circle cx="220" cy="150" r="3" opacity="0.5"/>
    <circle cx="340" cy="70" r="5" opacity="0.7"/>
    <circle cx="460" cy="180" r="3" opacity="0.4"/>
    <circle cx="600" cy="100" r="4" opacity="0.6"/>
    <circle cx="700" cy="200" r="3" opacity="0.5"/>
    <circle cx="180" cy="320" r="4" opacity="0.6"/>
    <circle cx="380" cy="380" r="3" opacity="0.5"/>
    <circle cx="540" cy="330" r="5" opacity="0.7"/>
    <circle cx="670" cy="370" r="3" opacity="0.4"/>
  </g>
  <g stroke="#06b6d4" stroke-width="1" opacity="0.3">
    <line x1="120" y1="90" x2="340" y2="70"/>
    <line x1="340" y1="70" x2="460" y2="180"/>
    <line x1="220" y1="150" x2="180" y2="320"/>
    <line x1="460" y1="180" x2="600" y2="100"/>
    <line x1="380" y1="380" x2="540" y2="330"/>
    <line x1="540" y1="330" x2="670" y2="370"/>
    <line x1="600" y1="100" x2="700" y2="200"/>
  </g>
  <circle cx="400" cy="225" r="52" fill="none" stroke="#06b6d4" stroke-width="2" stroke-dasharray="6 6"/>
  <text x="400" y="200" text-anchor="middle" fill="#f8fafc" font-family="Inter, sans-serif" font-size="13" font-weight="900" letter-spacing="2">99%</text>
  <text x="400" y="222" text-anchor="middle" fill="#94a3b8" font-family="Inter, sans-serif" font-size="9" font-weight="700" letter-spacing="1">UNCULTURED</text>
  <text x="400" y="246" text-anchor="middle" fill="#94a3b8" font-family="Inter, sans-serif" font-size="9" font-weight="700" letter-spacing="1">MICROBES</text>
</svg>
